<?xml version="1.0" encoding="UTF-8"?>
<svg width="537px" height="132px" viewBox="0 0 537 132" version="1.1" xmlns="http://www.w3.org/2000/svg" xmlns:xlink="http://www.w3.org/1999/xlink">
    <title>app_logo_filled</title>
    <g id="Page-1" stroke="none" stroke-width="1" fill="none" fill-rule="evenodd">
        <g id="banners" transform="translate(-229.000000, -5181.000000)" fill="#34C7B5" fill-rule="nonzero">
            <g id="app_outline_reversed_final" transform="translate(0.000000, 4997.000000)">
                <g id="app_logo_filled" transform="translate(229.000000, 184.000000)">
                    <path d="M23.4555558,39.9701193 L56.2759616,0 L87.4461794,39.9701193 L23.4555558,39.9701193 Z M52.6816697,101.46261 L2.01214711,93.2270089 L19.9385486,45.826547 L52.6816697,101.46261 Z M52.6816697,101.46261 L2.01214711,93.2270089 L19.9385486,45.826547 L52.6816697,101.46261 Z M90.7295422,46.0095604 L110.302246,93.4100223 L59.6327233,101.645624 L90.7295422,46.0095604 Z M91.2783096,39.4210792 L60.9131806,0.805258813 L110.302246,29.355344 L91.2783096,39.4210792 Z M19.2068587,39.4210792 L2.01214711,29.355344 L51.0353675,0.98827218 L19.2068587,39.4210792 Z M17.3776341,42.5323064 L-4.26325641e-14,88.285648 L-4.26325641e-14,32.4665712 L17.3776341,42.5323064 Z M54.3279718,105.488904 L54.3279718,126.901468 L2.92675943,97.253303 L54.3279718,105.488904 Z M57.9864211,105.488904 L109.387634,97.253303 L57.9864211,126.901468 L57.9864211,105.488904 Z M1.74625617,100.969174 L50.7187591,128.9519 L1.74625617,132 L1.74625617,100.969174 Z M112.497315,32.2835579 L112.497315,88.8346881 L93.2904567,42.5323064 L112.497315,32.2835579 Z" id="tether_icon_white_beta"></path>
                    <path d="M176.377315,102.4 C181.417315,102.4 185.737315,101.6 189.337315,100 C192.937315,98.4 195.657315,96.24 197.497315,93.52 C199.337315,90.8 200.257315,87.8 200.257315,84.52 C200.257315,79.88 198.737315,76.16 195.697315,73.36 C192.657315,70.56 187.417315,68.32 179.977315,66.64 C174.937315,65.52 171.097315,64.42 168.457315,63.34 C165.817315,62.26 164.017315,61.08 163.057315,59.8 C162.097315,58.52 161.617315,56.92 161.617315,55 C161.617315,51.88 162.817315,49.36 165.217315,47.44 C167.617315,45.52 171.137315,44.56 175.777315,44.56 C180.097315,44.56 183.277315,45.18 185.317315,46.42 C187.357315,47.66 189.177315,49.48 190.777315,51.88 C191.417315,52.92 192.297315,53.44 193.417315,53.44 L193.417315,53.44 L195.217315,53.44 C195.937315,53.44 196.557315,53.22 197.077315,52.78 C197.597315,52.34 197.857315,51.76 197.857315,51.04 C197.857315,49.68 197.037315,47.92 195.397315,45.76 C193.757315,43.6 191.277315,41.7 187.957315,40.06 C184.637315,38.42 180.577315,37.6 175.777315,37.6 C171.217315,37.6 167.317315,38.44 164.077315,40.12 C160.837315,41.8 158.397315,43.96 156.757315,46.6 C155.117315,49.24 154.297315,52.04 154.297315,55 C154.297315,59.32 155.597315,62.88 158.197315,65.68 C160.797315,68.48 165.657315,70.68 172.777315,72.28 C178.217315,73.56 182.317315,74.7 185.077315,75.7 C187.837315,76.7 189.837315,77.88 191.077315,79.24 C192.317315,80.6 192.937315,82.36 192.937315,84.52 C192.937315,88.04 191.417315,90.74 188.377315,92.62 C185.337315,94.5 181.337315,95.44 176.377315,95.44 C171.977315,95.44 168.517315,94.74 165.997315,93.34 C163.477315,91.94 161.337315,90 159.577315,87.52 C159.097315,86.88 158.677315,86.46 158.317315,86.26 C157.957315,86.06 157.497315,85.96 156.937315,85.96 L156.937315,85.96 L155.137315,85.96 C154.497315,85.96 153.897315,86.18 153.337315,86.62 C152.777315,87.06 152.497315,87.64 152.497315,88.36 C152.497315,89.72 153.397315,91.52 155.197315,93.76 C156.997315,96 159.677315,98 163.237315,99.76 C166.797315,101.52 171.177315,102.4 176.377315,102.4 Z M226.537315,124 C227.817315,124 228.737315,123.4 229.297315,122.2 L229.297315,122.2 L263.377315,43.6 C263.857315,42.4 264.097315,41.6 264.097315,41.2 C264.097315,40.56 263.857315,40 263.377315,39.52 C262.897315,39.04 262.337315,38.8 261.697315,38.8 L261.697315,38.8 L259.297315,38.8 C258.097315,38.8 257.177315,39.4 256.537315,40.6 L256.537315,40.6 L235.897315,88.12 L215.737315,40.6 C215.177315,39.4 214.257315,38.8 212.977315,38.8 L212.977315,38.8 L210.457315,38.8 C209.817315,38.8 209.257315,39.04 208.777315,39.52 C208.297315,40 208.057315,40.56 208.057315,41.2 C208.057315,41.6 208.297315,42.4 208.777315,43.6 L208.777315,43.6 L231.697315,97.6 L222.457315,119.2 C221.977315,120.4 221.737315,121.2 221.737315,121.6 C221.737315,122.24 221.977315,122.8 222.457315,123.28 C222.937315,123.76 223.497315,124 224.137315,124 L224.137315,124 L226.537315,124 Z M282.217315,124 C283.017315,124 283.657315,123.76 284.137315,123.28 C284.617315,122.8 284.857315,122.16 284.857315,121.36 L284.857315,121.36 L284.857315,92.92 C289.577315,99.24 296.297315,102.4 305.017315,102.4 C313.657315,102.4 320.037315,99.66 324.157315,94.18 C328.277315,88.7 330.457315,81.96 330.697315,73.96 C330.777315,73.16 330.817315,71.84 330.817315,70 C330.817315,68.16 330.777315,66.84 330.697315,66.04 C330.457315,58.04 328.277315,51.3 324.157315,45.82 C320.037315,40.34 313.657315,37.6 305.017315,37.6 C296.217315,37.6 289.497315,40.76 284.857315,47.08 L284.857315,47.08 L284.857315,41.44 C284.857315,40.64 284.617315,40 284.137315,39.52 C283.657315,39.04 283.017315,38.8 282.217315,38.8 L282.217315,38.8 L280.177315,38.8 C279.377315,38.8 278.737315,39.04 278.257315,39.52 C277.777315,40 277.537315,40.64 277.537315,41.44 L277.537315,41.44 L277.537315,121.36 C277.537315,122.16 277.777315,122.8 278.257315,123.28 C278.737315,123.76 279.377315,124 280.177315,124 L280.177315,124 L282.217315,124 Z M304.297315,95.44 C300.057315,95.44 296.497315,94.44 293.617315,92.44 C290.737315,90.44 288.577315,87.9 287.137315,84.82 C285.697315,81.74 284.937315,78.48 284.857315,75.04 L284.857315,75.04 L284.737315,70.36 L284.857315,65.68 C285.097315,60 286.817315,55.06 290.017315,50.86 C293.217315,46.66 297.977315,44.56 304.297315,44.56 C311.337315,44.56 316.297315,46.94 319.177315,51.7 C322.057315,56.46 323.497315,62.56 323.497315,70 C323.497315,71.44 323.457315,72.56 323.377315,73.36 C323.137315,79.84 321.517315,85.14 318.517315,89.26 C315.517315,93.38 310.777315,95.44 304.297315,95.44 Z M351.937315,101.2 C352.737315,101.2 353.377315,100.96 353.857315,100.48 C354.337315,100 354.577315,99.36 354.577315,98.56 L354.577315,98.56 L354.577315,65.08 C354.577315,58.68 356.297315,53.66 359.737315,50.02 C363.177315,46.38 367.777315,44.56 373.537315,44.56 C379.457315,44.56 383.997315,46.36 387.157315,49.96 C390.317315,53.56 391.897315,58.6 391.897315,65.08 L391.897315,65.08 L391.897315,98.56 C391.897315,99.36 392.137315,100 392.617315,100.48 C393.097315,100.96 393.737315,101.2 394.537315,101.2 L394.537315,101.2 L396.577315,101.2 C397.377315,101.2 398.017315,100.96 398.497315,100.48 C398.977315,100 399.217315,99.36 399.217315,98.56 L399.217315,98.56 L399.217315,64.48 C399.217315,56.56 397.097315,50.1 392.857315,45.1 C388.617315,40.1 382.577315,37.6 374.737315,37.6 C369.857315,37.6 365.877315,38.4 362.797315,40 C359.717315,41.6 356.977315,43.96 354.577315,47.08 L354.577315,47.08 L354.577315,18.64 C354.577315,17.84 354.337315,17.2 353.857315,16.72 C353.377315,16.24 352.737315,16 351.937315,16 L351.937315,16 L349.897315,16 C349.097315,16 348.457315,16.24 347.977315,16.72 C347.497315,17.2 347.257315,17.84 347.257315,18.64 L347.257315,18.64 L347.257315,98.56 C347.257315,99.36 347.497315,100 347.977315,100.48 C348.457315,100.96 349.097315,101.2 349.897315,101.2 L349.897315,101.2 L351.937315,101.2 Z M441.817315,102.4 C450.137315,102.4 456.597315,99.86 461.197315,94.78 C465.797315,89.7 468.217315,83.12 468.457315,75.04 C468.537315,74.24 468.577315,72.56 468.577315,70 C468.577315,67.44 468.537315,65.76 468.457315,64.96 C468.217315,56.88 465.797315,50.3 461.197315,45.22 C456.597315,40.14 450.137315,37.6 441.817315,37.6 C433.497315,37.6 427.037315,40.14 422.437315,45.22 C417.837315,50.3 415.417315,56.88 415.177315,64.96 L415.177315,64.96 L415.057315,70 L415.177315,75.04 C415.417315,83.12 417.837315,89.7 422.437315,94.78 C427.037315,99.86 433.497315,102.4 441.817315,102.4 Z M441.817315,95.44 C436.137315,95.44 431.557315,93.62 428.077315,89.98 C424.597315,86.34 422.737315,81.16 422.497315,74.44 L422.497315,74.44 L422.377315,70 L422.497315,65.56 C422.737315,58.84 424.597315,53.66 428.077315,50.02 C431.557315,46.38 436.137315,44.56 441.817315,44.56 C447.497315,44.56 452.077315,46.38 455.557315,50.02 C459.037315,53.66 460.897315,58.84 461.137315,65.56 C461.217315,66.36 461.257315,67.84 461.257315,70 C461.257315,72.16 461.217315,73.64 461.137315,74.44 C460.897315,81.16 459.037315,86.34 455.557315,89.98 C452.077315,93.62 447.497315,95.44 441.817315,95.44 Z M489.697315,101.2 C490.497315,101.2 491.137315,100.96 491.617315,100.48 C492.097315,100 492.337315,99.36 492.337315,98.56 L492.337315,98.56 L492.337315,65.08 C492.337315,58.68 494.057315,53.66 497.497315,50.02 C500.937315,46.38 505.537315,44.56 511.297315,44.56 C517.217315,44.56 521.757315,46.36 524.917315,49.96 C528.077315,53.56 529.657315,58.6 529.657315,65.08 L529.657315,65.08 L529.657315,98.56 C529.657315,99.36 529.897315,100 530.377315,100.48 C530.857315,100.96 531.497315,101.2 532.297315,101.2 L532.297315,101.2 L534.337315,101.2 C535.137315,101.2 535.777315,100.96 536.257315,100.48 C536.737315,100 536.977315,99.36 536.977315,98.56 L536.977315,98.56 L536.977315,64.48 C536.977315,56.56 534.857315,50.1 530.617315,45.1 C526.377315,40.1 520.337315,37.6 512.497315,37.6 C507.617315,37.6 503.637315,38.4 500.557315,40 C497.477315,41.6 494.737315,43.96 492.337315,47.08 L492.337315,47.08 L492.337315,41.44 C492.337315,40.64 492.097315,40 491.617315,39.52 C491.137315,39.04 490.497315,38.8 489.697315,38.8 L489.697315,38.8 L487.657315,38.8 C486.857315,38.8 486.217315,39.04 485.737315,39.52 C485.257315,40 485.017315,40.64 485.017315,41.44 L485.017315,41.44 L485.017315,98.56 C485.017315,99.36 485.257315,100 485.737315,100.48 C486.217315,100.96 486.857315,101.2 487.657315,101.2 L487.657315,101.2 L489.697315,101.2 Z" id="syphon"></path>
                </g>
            </g>
        </g>
    </g>
</svg>