<?xml version="1.0" encoding="UTF-8"?>
<svg width="531px" height="125px" viewBox="0 0 531 125" version="1.1" xmlns="http://www.w3.org/2000/svg" xmlns:xlink="http://www.w3.org/1999/xlink">
    <title>app_logo_white</title>
    <g id="Page-1" stroke="none" stroke-width="1" fill="none" fill-rule="evenodd">
        <g id="app_logo_banner_cyan" transform="translate(-246.000000, -187.000000)" fill-rule="nonzero">
            <g id="app_logo_white" transform="translate(246.000000, 187.000000)">
                <g id="app_logo" transform="translate(146.000000, 9.000000)" fill="#FEFEFE">
                    <path d="M23.88,86.4 C28.92,86.4 33.24,85.6 36.84,84 C40.44,82.4 43.16,80.24 45,77.52 C46.84,74.8 47.76,71.8 47.76,68.52 C47.76,63.88 46.24,60.16 43.2,57.36 C40.16,54.56 34.92,52.32 27.48,50.64 C22.44,49.52 18.6,48.42 15.96,47.34 C13.32,46.26 11.52,45.08 10.56,43.8 C9.6,42.52 9.12,40.92 9.12,39 C9.12,35.88 10.32,33.36 12.72,31.44 C15.12,29.52 18.64,28.56 23.28,28.56 C27.6,28.56 30.78,29.18 32.82,30.42 C34.86,31.66 36.68,33.48 38.28,35.88 C38.92,36.92 39.8,37.44 40.92,37.44 L40.92,37.44 L42.72,37.44 C43.44,37.44 44.06,37.22 44.58,36.78 C45.1,36.34 45.36,35.76 45.36,35.04 C45.36,33.68 44.54,31.92 42.9,29.76 C41.26,27.6 38.78,25.7 35.46,24.06 C32.14,22.42 28.08,21.6 23.28,21.6 C18.72,21.6 14.82,22.44 11.58,24.12 C8.34,25.8 5.9,27.96 4.26,30.6 C2.62,33.24 1.8,36.04 1.8,39 C1.8,43.32 3.1,46.88 5.7,49.68 C8.3,52.48 13.16,54.68 20.28,56.28 C25.72,57.56 29.82,58.7 32.58,59.7 C35.34,60.7 37.34,61.88 38.58,63.24 C39.82,64.6 40.44,66.36 40.44,68.52 C40.44,72.04 38.92,74.74 35.88,76.62 C32.84,78.5 28.84,79.44 23.88,79.44 C19.48,79.44 16.02,78.74 13.5,77.34 C10.98,75.94 8.84,74 7.08,71.52 C6.6,70.88 6.18,70.46 5.82,70.26 C5.46,70.06 5,69.96 4.44,69.96 L4.44,69.96 L2.64,69.96 C2,69.96 1.4,70.18 0.84,70.62 C0.28,71.06 0,71.64 0,72.36 C0,73.72 0.9,75.52 2.7,77.76 C4.5,80 7.18,82 10.74,83.76 C14.3,85.52 18.68,86.4 23.88,86.4 Z M74.04,108 C75.32,108 76.24,107.4 76.8,106.2 L76.8,106.2 L110.88,27.6 C111.36,26.4 111.6,25.6 111.6,25.2 C111.6,24.56 111.36,24 110.88,23.52 C110.4,23.04 109.84,22.8 109.2,22.8 L109.2,22.8 L106.8,22.8 C105.6,22.8 104.68,23.4 104.04,24.6 L104.04,24.6 L83.4,72.12 L63.24,24.6 C62.68,23.4 61.76,22.8 60.48,22.8 L60.48,22.8 L57.96,22.8 C57.32,22.8 56.76,23.04 56.28,23.52 C55.8,24 55.56,24.56 55.56,25.2 C55.56,25.6 55.8,26.4 56.28,27.6 L56.28,27.6 L79.2,81.6 L69.96,103.2 C69.48,104.4 69.24,105.2 69.24,105.6 C69.24,106.24 69.48,106.8 69.96,107.28 C70.44,107.76 71,108 71.64,108 L71.64,108 L74.04,108 Z M129.72,108 C130.52,108 131.16,107.76 131.64,107.28 C132.12,106.8 132.36,106.16 132.36,105.36 L132.36,105.36 L132.36,76.92 C137.08,83.24 143.8,86.4 152.52,86.4 C161.16,86.4 167.54,83.66 171.66,78.18 C175.78,72.7 177.96,65.96 178.2,57.96 C178.28,57.16 178.32,55.84 178.32,54 C178.32,52.16 178.28,50.84 178.2,50.04 C177.96,42.04 175.78,35.3 171.66,29.82 C167.54,24.34 161.16,21.6 152.52,21.6 C143.72,21.6 137,24.76 132.36,31.08 L132.36,31.08 L132.36,25.44 C132.36,24.64 132.12,24 131.64,23.52 C131.16,23.04 130.52,22.8 129.72,22.8 L129.72,22.8 L127.68,22.8 C126.88,22.8 126.24,23.04 125.76,23.52 C125.28,24 125.04,24.64 125.04,25.44 L125.04,25.44 L125.04,105.36 C125.04,106.16 125.28,106.8 125.76,107.28 C126.24,107.76 126.88,108 127.68,108 L127.68,108 L129.72,108 Z M151.8,79.44 C147.56,79.44 144,78.44 141.12,76.44 C138.24,74.44 136.08,71.9 134.64,68.82 C133.2,65.74 132.44,62.48 132.36,59.04 L132.36,59.04 L132.24,54.36 L132.36,49.68 C132.6,44 134.32,39.06 137.52,34.86 C140.72,30.66 145.48,28.56 151.8,28.56 C158.84,28.56 163.8,30.94 166.68,35.7 C169.56,40.46 171,46.56 171,54 C171,55.44 170.96,56.56 170.88,57.36 C170.64,63.84 169.02,69.14 166.02,73.26 C163.02,77.38 158.28,79.44 151.8,79.44 Z M199.44,85.2 C200.24,85.2 200.88,84.96 201.36,84.48 C201.84,84 202.08,83.36 202.08,82.56 L202.08,82.56 L202.08,49.08 C202.08,42.68 203.8,37.66 207.24,34.02 C210.68,30.38 215.28,28.56 221.04,28.56 C226.96,28.56 231.5,30.36 234.66,33.96 C237.82,37.56 239.4,42.6 239.4,49.08 L239.4,49.08 L239.4,82.56 C239.4,83.36 239.64,84 240.12,84.48 C240.6,84.96 241.24,85.2 242.04,85.2 L242.04,85.2 L244.08,85.2 C244.88,85.2 245.52,84.96 246,84.48 C246.48,84 246.72,83.36 246.72,82.56 L246.72,82.56 L246.72,48.48 C246.72,40.56 244.6,34.1 240.36,29.1 C236.12,24.1 230.08,21.6 222.24,21.6 C217.36,21.6 213.38,22.4 210.3,24 C207.22,25.6 204.48,27.96 202.08,31.08 L202.08,31.08 L202.08,2.64 C202.08,1.84 201.84,1.2 201.36,0.72 C200.88,0.24 200.24,0 199.44,0 L199.44,0 L197.4,0 C196.6,0 195.96,0.24 195.48,0.72 C195,1.2 194.76,1.84 194.76,2.64 L194.76,2.64 L194.76,82.56 C194.76,83.36 195,84 195.48,84.48 C195.96,84.96 196.6,85.2 197.4,85.2 L197.4,85.2 L199.44,85.2 Z M289.32,86.4 C297.64,86.4 304.1,83.86 308.7,78.78 C313.3,73.7 315.72,67.12 315.96,59.04 C316.04,58.24 316.08,56.56 316.08,54 C316.08,51.44 316.04,49.76 315.96,48.96 C315.72,40.88 313.3,34.3 308.7,29.22 C304.1,24.14 297.64,21.6 289.32,21.6 C281,21.6 274.54,24.14 269.94,29.22 C265.34,34.3 262.92,40.88 262.68,48.96 L262.68,48.96 L262.56,54 L262.68,59.04 C262.92,67.12 265.34,73.7 269.94,78.78 C274.54,83.86 281,86.4 289.32,86.4 Z M289.32,79.44 C283.64,79.44 279.06,77.62 275.58,73.98 C272.1,70.34 270.24,65.16 270,58.44 L270,58.44 L269.88,54 L270,49.56 C270.24,42.84 272.1,37.66 275.58,34.02 C279.06,30.38 283.64,28.56 289.32,28.56 C295,28.56 299.58,30.38 303.06,34.02 C306.54,37.66 308.4,42.84 308.64,49.56 C308.72,50.36 308.76,51.84 308.76,54 C308.76,56.16 308.72,57.64 308.64,58.44 C308.4,65.16 306.54,70.34 303.06,73.98 C299.58,77.62 295,79.44 289.32,79.44 Z M337.2,85.2 C338,85.2 338.64,84.96 339.12,84.48 C339.6,84 339.84,83.36 339.84,82.56 L339.84,82.56 L339.84,49.08 C339.84,42.68 341.56,37.66 345,34.02 C348.44,30.38 353.04,28.56 358.8,28.56 C364.72,28.56 369.26,30.36 372.42,33.96 C375.58,37.56 377.16,42.6 377.16,49.08 L377.16,49.08 L377.16,82.56 C377.16,83.36 377.4,84 377.88,84.48 C378.36,84.96 379,85.2 379.8,85.2 L379.8,85.2 L381.84,85.2 C382.64,85.2 383.28,84.96 383.76,84.48 C384.24,84 384.48,83.36 384.48,82.56 L384.48,82.56 L384.48,48.48 C384.48,40.56 382.36,34.1 378.12,29.1 C373.88,24.1 367.84,21.6 360,21.6 C355.12,21.6 351.14,22.4 348.06,24 C344.98,25.6 342.24,27.96 339.84,31.08 L339.84,31.08 L339.84,25.44 C339.84,24.64 339.6,24 339.12,23.52 C338.64,23.04 338,22.8 337.2,22.8 L337.2,22.8 L335.16,22.8 C334.36,22.8 333.72,23.04 333.24,23.52 C332.76,24 332.52,24.64 332.52,25.44 L332.52,25.44 L332.52,82.56 C332.52,83.36 332.76,84 333.24,84.48 C333.72,84.96 334.36,85.2 335.16,85.2 L335.16,85.2 L337.2,85.2 Z" id="syphon"></path>
                </g>
                <path d="M10.437,22.087 L10.4375717,36.0261276 L10.4829683,36.0260057 C10.4378278,36.2627171 10.4091296,36.5039533 10.3977607,36.7481847 L10.3921976,36.9874419 L10.3921976,80.0477131 C10.3921976,81.8084667 11.2946289,83.4412854 12.7743341,84.3854277 L12.9796597,84.5098531 L47.241,104.204 L47.241,118.399 L6.10849279,124.886766 C5.87439938,124.936694 5.63423662,124.970231 5.38926341,124.986118 C2.81520622,125.198552 0.474484205,123.393159 0.0622765479,120.801893 C-0.0226607181,120.26795 -0.0191692725,119.740359 0.0619265693,119.234038 L0.0623073673,80.8325602 L0.0473538992,80.4409258 L0.0423494271,80.0477131 L0.0423494271,36.9874419 C0.0423494271,31.5851296 2.87410032,26.5842661 7.49409794,23.7843993 L7.80473558,23.601022 L10.437,22.087 Z M95.5392424,35.9258383 L105.963521,35.9268293 C105.979561,36.1595829 105.990355,36.3933235 105.995816,36.6279022 L106,36.9874419 L106,80.0477131 C106,85.4500253 103.168249,90.4508888 98.5482515,93.2507557 L98.2376138,93.434133 L60.7835609,114.964269 C60.0261441,115.399663 59.241013,115.766403 58.4369076,116.064488 L58.436,104.413 L93.0626897,84.5098531 C94.5942026,83.6294762 95.5632214,82.0349348 95.6445887,80.2869702 L95.6501518,80.0477131 L95.6501518,36.9874419 C95.6501518,36.6265918 95.6122491,36.271115 95.5392424,35.9258383 Z M10.058,94.73 L10.0586081,114.186861 L36.619,109.998 L10.058,94.73 Z M57.274681,25.7239962 L57.5545281,25.8783343 L79.2116336,38.3277325 C81.9023032,39.8744404 83.5921099,42.6918831 83.6950952,45.7695611 L83.7000882,46.0681793 L83.7000882,70.9669756 C83.7000882,74.0603915 82.0943649,76.9261688 79.4688769,78.5538081 L79.2116336,78.7074225 L57.5545281,91.1568206 C54.869645,92.7002023 51.5825001,92.7516484 48.8574661,91.3111588 L48.577619,91.1568206 L26.9205135,78.7074225 C24.2298439,77.1607146 22.5400372,74.3432719 22.4370519,71.2655939 L22.4320589,70.9669756 L22.4320589,46.0681793 C22.4320589,42.9747635 24.0377822,40.1089862 26.6632702,38.4813469 L26.9205135,38.3277325 L48.577619,25.8783343 C51.2625022,24.3349526 54.549647,24.2835066 57.274681,25.7239962 Z M60.4543566,1.88690266 L60.7835609,2.07088636 L98.2376138,23.601022 C98.8563933,23.9567219 99.4445652,24.3512823 99.9997469,24.7805938 L79.589,24.78 L55.6086368,10.9951663 C54.0802882,10.1166084 52.2134057,10.076674 50.6542813,10.8753629 L50.4337127,10.9951663 L21.632,27.551 L21.632,15.652 L45.2587886,2.07088636 C49.9530021,-0.627541322 55.7117549,-0.688869224 60.4543566,1.88690266 Z" id="app-icon-raw-short" fill="#FFFFFF"></path>
            </g>
        </g>
    </g>
</svg>