<?xml version="1.0" encoding="UTF-8"?>
<svg width="150px" height="179px" viewBox="0 0 150 179" version="1.1" xmlns="http://www.w3.org/2000/svg" xmlns:xlink="http://www.w3.org/1999/xlink">
    <!-- Generator: Sketch 59.1 (86144) - https://sketch.com -->
    <title>tether_icon_white_beta</title>
    <desc>Created with Sketch.</desc>
    <g id="Page-1" stroke="none" stroke-width="1" fill="none" fill-rule="evenodd">
        <g id="tether_outline_reversed_v4" transform="translate(-242.000000, -168.000000)" fill="#FEFEFE" fill-rule="nonzero">
            <path d="M275.274557,220 L317.972981,168 L358.524557,220 L275.274557,220 Z M313.296909,300 L247.377286,289.285714 L270.69903,227.619048 L313.296909,300 Z M362.79612,227.857143 L388.259656,289.52381 L322.340034,300.238095 L362.79612,227.857143 Z M363.510051,219.285714 L324.005873,169.047619 L388.259656,206.190476 L363.510051,219.285714 Z M269.747122,219.285714 L247.377286,206.190476 L311.155116,169.285714 L269.747122,219.285714 Z M267.367352,223.333333 L244.75954,282.857143 L244.75954,210.238095 L267.367352,223.333333 Z M315.438702,305.238095 L315.438702,333.095238 L248.567171,294.52381 L315.438702,305.238095 Z M320.198241,305.238095 L387.069772,294.52381 L320.198241,333.095238 L320.198241,305.238095 Z M247.03137,299.358053 L310.743217,335.762792 L242.261439,346.808919 L247.03137,299.358053 Z M391.11538,210 L391.11538,283.571429 L366.127798,223.333333 L391.11538,210 Z" id="tether_icon_white_beta"></path>
        </g>
    </g>
</svg>