<?xml version="1.0" encoding="UTF-8"?>
<svg width="1028px" height="1028px" viewBox="0 0 1028 1028" version="1.1" xmlns="http://www.w3.org/2000/svg" xmlns:xlink="http://www.w3.org/1999/xlink">
    <title>app_icon_desktop</title>
    <g id="app_icon_desktop" stroke="none" stroke-width="1" fill="none" fill-rule="evenodd">
        <circle id="Oval" fill="#34C7B5" cx="514" cy="514" r="514"></circle>
        <path d="M271.473,282.517 L271.47387,362.357147 L271.732412,362.357154 C271.420328,364.002482 271.246204,365.685972 271.219072,367.391969 L271.215323,367.863541 L271.215323,614.512163 C271.215323,624.898797 276.669061,634.508218 285.552828,639.832202 L285.958991,640.071238 L481.187,752.884 L481.187,834.192 L246.890842,871.33473 C245.314553,871.675967 243.689651,871.886698 242.028011,871.955048 C227.617894,872.754277 214.656919,862.526731 212.348087,847.962055 C212.347686,847.959525 212.347285,847.956995 212.354474,847.953264 L212.353924,847.949786 C211.872242,844.896249 211.894354,841.879346 212.358724,838.983776 L212.358513,619.088716 C212.299763,617.949428 212.262841,616.806268 212.248052,615.659763 L212.240652,614.512163 L212.240652,367.863541 C212.240652,336.547841 228.765886,307.587153 255.653708,291.664812 L256.471656,291.186319 L271.473,282.517 Z M815.792061,361.78723 C815.908677,363.487981 815.976646,365.197931 815.994948,366.915313 L816,367.863541 L816,614.512163 C816,645.827863 799.474766,674.788552 772.586945,690.710893 L771.768997,691.189386 L558.351329,814.513697 C554.034451,817.008224 549.559576,819.10931 544.976545,820.816955 L544.976,754.084 L742.281661,640.071238 C751.268904,634.877921 756.85678,625.346012 757.02158,614.983735 L757.025329,614.512163 L757.025329,367.863541 C757.025329,365.798149 756.809679,363.763488 756.39429,361.787145 L815.792061,361.78723 Z M269.314,698.61 L269.314291,810.063347 L420.667,786.07 L269.314,698.61 Z M539.450924,303.944972 L539.951915,304.230731 L663.356689,375.540707 C679.024755,384.594566 688.736843,401.250004 688.929518,419.329581 L688.932439,419.877877 L688.932439,562.497828 C688.932439,580.605546 679.377032,597.351522 663.829652,606.558318 L663.356689,606.834998 L539.951915,678.144973 C524.292179,687.194019 505.036839,687.289272 489.301406,678.430733 L488.800415,678.144973 L365.395641,606.834998 C349.727575,597.781139 340.015487,581.125701 339.822812,563.046124 L339.819891,562.497828 L339.819891,419.877877 C339.819891,401.770159 349.375298,385.024183 364.922678,375.817387 L365.395641,375.540707 L488.800415,304.230731 C504.460151,295.181686 523.715491,295.086433 539.450924,303.944972 Z M557.52833,167.392272 L558.351329,167.862008 L771.768997,291.186319 C775.294165,293.223352 778.644999,295.482888 781.807928,297.941402 L665.509,297.941 L528.863994,218.980156 C519.883134,213.790528 508.850821,213.70944 499.805853,218.736892 L499.376658,218.980156 L335.263,313.813 L335.263,245.656 L469.889323,167.862008 C496.98586,152.204158 530.307294,152.047579 557.52833,167.392272 Z" id="app-icon-raw-short" fill="#FFFFFF" fill-rule="nonzero"></path>
    </g>
</svg>