<?xml version="1.0" encoding="UTF-8"?>
<svg width="1028px" height="1028px" viewBox="0 0 1028 1028" version="1.1" xmlns="http://www.w3.org/2000/svg" xmlns:xlink="http://www.w3.org/1999/xlink">
    <title>app_icon_macos</title>
    <g id="app_icon_macos" stroke="none" stroke-width="1" fill="none" fill-rule="evenodd">
        <circle id="Oval" fill="#34C7B5" cx="514" cy="514" r="478"></circle>
        <path d="M289.141,298.035 L289.141337,372.523149 L289.381023,372.523268 C289.092506,374.053912 288.93117,375.619956 288.905317,377.20692 L288.901624,377.660399 L288.901624,607.773918 C288.901624,617.459723 293.953356,626.421095 302.183158,631.389574 L302.57125,631.619534 L483.577,736.87 L483.577,812.727 L266.395866,847.372911 C264.572683,847.771076 262.67908,847.980869 260.736478,847.980869 C260.492439,847.980869 260.249174,847.977558 260.006725,847.970979 C259.984249,847.969879 259.961906,847.969431 259.939568,847.968956 C259.904812,847.968042 259.869836,847.966937 259.834878,847.965764 C247.302739,847.649821 236.383427,838.447046 234.337525,825.621347 C234.334461,825.602139 234.331418,825.582928 234.328397,825.563713 C233.880998,822.71877 233.901541,819.908077 234.333034,817.210077 L234.333064,612.056684 C234.278261,610.990547 234.24382,609.920773 234.230024,608.847859 L234.223121,607.773918 L234.223121,377.660399 C234.223121,348.444075 249.54453,321.424886 274.473636,306.569964 L275.231999,306.123549 L289.141,298.035 Z M738.736344,371.990954 L793.807208,371.991426 C793.915329,373.578163 793.978347,375.173485 793.995316,376.775739 L794,377.660399 L794,607.773918 C794,636.990241 778.678591,664.009431 753.749485,678.864353 L752.991123,679.310768 L555.120438,794.367527 C551.11828,796.69468 546.969655,798.654813 542.720761,800.247926 L542.72,737.989 L725.651871,631.619534 C733.98053,626.776632 739.160395,617.889766 739.317804,608.227397 L739.321497,607.773918 L739.321497,377.660399 C739.321497,375.733327 739.121527,373.834932 738.736344,371.990954 Z M287.139,686.234 L287.139011,790.215659 L427.466,767.831 L287.139,686.234 Z M537.25058,317.12697 L537.736022,317.405433 L652.263978,384.000031 C666.798881,392.451644 675.810886,407.996207 675.997059,424.872045 L676,425.405402 L676,558.594598 C676,575.497824 667.1394,591.130425 652.721135,599.730725 L652.263978,599.999969 L537.736022,666.594567 C523.209526,675.041292 505.349188,675.134113 490.74942,666.87303 L490.263978,666.594567 L375.736022,599.999969 C361.201119,591.548356 352.189114,576.003793 352.002941,559.127955 L352,558.594598 L352,425.405402 C352,408.502176 360.8606,392.869575 375.278865,384.269275 L375.736022,384.000031 L490.263978,317.405433 C504.790474,308.958708 522.650812,308.865887 537.25058,317.12697 Z M554.357392,190.628544 L555.120438,191.066789 L752.991123,306.123549 C756.259675,308.024128 759.366574,310.132317 762.299237,312.426165 L654.473,312.426 L527.781186,238.758023 C519.461061,233.920082 509.241895,233.840772 500.859506,238.520091 L500.441935,238.758023 L348.284,327.233 L348.284,263.645 L473.102683,191.066789 C498.225301,176.458627 529.119345,176.312546 554.357392,190.628544 Z" id="app-icon-raw-short" fill="#FFFFFF" fill-rule="nonzero"></path>
    </g>
</svg>