<?xml version="1.0" encoding="UTF-8"?>
<svg width="573px" height="172px" viewBox="0 0 573 172" version="1.1" xmlns="http://www.w3.org/2000/svg" xmlns:xlink="http://www.w3.org/1999/xlink">
    <title>Group</title>
    <g id="Page-1" stroke="none" stroke-width="1" fill="none" fill-rule="evenodd">
        <g id="banners" transform="translate(-769.000000, -5161.000000)" fill="#34C7B5" fill-rule="nonzero">
            <g id="app_outline_reversed_final" transform="translate(556.000000, 4997.000000)">
                <g id="Group" transform="translate(213.000000, 164.000000)">
                    <path d="M211.875841,128.2 C216.915841,128.2 221.235841,127.4 224.835841,125.8 C228.435841,124.2 231.155841,122.04 232.995841,119.32 C234.835841,116.6 235.755841,113.6 235.755841,110.32 C235.755841,105.68 234.235841,101.96 231.195841,99.16 C228.155841,96.36 222.915841,94.12 215.475841,92.44 C210.435841,91.32 206.595841,90.22 203.955841,89.14 C201.315841,88.06 199.515841,86.88 198.555841,85.6 C197.595841,84.32 197.115841,82.72 197.115841,80.8 C197.115841,77.68 198.315841,75.16 200.715841,73.24 C203.115841,71.32 206.635841,70.36 211.275841,70.36 C215.595841,70.36 218.775841,70.98 220.815841,72.22 C222.855841,73.46 224.675841,75.28 226.275841,77.68 C226.915841,78.72 227.795841,79.24 228.915841,79.24 L228.915841,79.24 L230.715841,79.24 C231.435841,79.24 232.055841,79.02 232.575841,78.58 C233.095841,78.14 233.355841,77.56 233.355841,76.84 C233.355841,75.48 232.535841,73.72 230.895841,71.56 C229.255841,69.4 226.775841,67.5 223.455841,65.86 C220.135841,64.22 216.075841,63.4 211.275841,63.4 C206.715841,63.4 202.815841,64.24 199.575841,65.92 C196.335841,67.6 193.895841,69.76 192.255841,72.4 C190.615841,75.04 189.795841,77.84 189.795841,80.8 C189.795841,85.12 191.095841,88.68 193.695841,91.48 C196.295841,94.28 201.155841,96.48 208.275841,98.08 C213.715841,99.36 217.815841,100.5 220.575841,101.5 C223.335841,102.5 225.335841,103.68 226.575841,105.04 C227.815841,106.4 228.435841,108.16 228.435841,110.32 C228.435841,113.84 226.915841,116.54 223.875841,118.42 C220.835841,120.3 216.835841,121.24 211.875841,121.24 C207.475841,121.24 204.015841,120.54 201.495841,119.14 C198.975841,117.74 196.835841,115.8 195.075841,113.32 C194.595841,112.68 194.175841,112.26 193.815841,112.06 C193.455841,111.86 192.995841,111.76 192.435841,111.76 L192.435841,111.76 L190.635841,111.76 C189.995841,111.76 189.395841,111.98 188.835841,112.42 C188.275841,112.86 187.995841,113.44 187.995841,114.16 C187.995841,115.52 188.895841,117.32 190.695841,119.56 C192.495841,121.8 195.175841,123.8 198.735841,125.56 C202.295841,127.32 206.675841,128.2 211.875841,128.2 Z M262.035841,149.8 C263.315841,149.8 264.235841,149.2 264.795841,148 L264.795841,148 L298.875841,69.4 C299.355841,68.2 299.595841,67.4 299.595841,67 C299.595841,66.36 299.355841,65.8 298.875841,65.32 C298.395841,64.84 297.835841,64.6 297.195841,64.6 L297.195841,64.6 L294.795841,64.6 C293.595841,64.6 292.675841,65.2 292.035841,66.4 L292.035841,66.4 L271.395841,113.92 L251.235841,66.4 C250.675841,65.2 249.755841,64.6 248.475841,64.6 L248.475841,64.6 L245.955841,64.6 C245.315841,64.6 244.755841,64.84 244.275841,65.32 C243.795841,65.8 243.555841,66.36 243.555841,67 C243.555841,67.4 243.795841,68.2 244.275841,69.4 L244.275841,69.4 L267.195841,123.4 L257.955841,145 C257.475841,146.2 257.235841,147 257.235841,147.4 C257.235841,148.04 257.475841,148.6 257.955841,149.08 C258.435841,149.56 258.995841,149.8 259.635841,149.8 L259.635841,149.8 L262.035841,149.8 Z M317.715841,149.8 C318.515841,149.8 319.155841,149.56 319.635841,149.08 C320.115841,148.6 320.355841,147.96 320.355841,147.16 L320.355841,147.16 L320.355841,118.72 C325.075841,125.04 331.795841,128.2 340.515841,128.2 C349.155841,128.2 355.535841,125.46 359.655841,119.98 C363.775841,114.5 365.955841,107.76 366.195841,99.76 C366.275841,98.96 366.315841,97.64 366.315841,95.8 C366.315841,93.96 366.275841,92.64 366.195841,91.84 C365.955841,83.84 363.775841,77.1 359.655841,71.62 C355.535841,66.14 349.155841,63.4 340.515841,63.4 C331.715841,63.4 324.995841,66.56 320.355841,72.88 L320.355841,72.88 L320.355841,67.24 C320.355841,66.44 320.115841,65.8 319.635841,65.32 C319.155841,64.84 318.515841,64.6 317.715841,64.6 L317.715841,64.6 L315.675841,64.6 C314.875841,64.6 314.235841,64.84 313.755841,65.32 C313.275841,65.8 313.035841,66.44 313.035841,67.24 L313.035841,67.24 L313.035841,147.16 C313.035841,147.96 313.275841,148.6 313.755841,149.08 C314.235841,149.56 314.875841,149.8 315.675841,149.8 L315.675841,149.8 L317.715841,149.8 Z M339.795841,121.24 C335.555841,121.24 331.995841,120.24 329.115841,118.24 C326.235841,116.24 324.075841,113.7 322.635841,110.62 C321.195841,107.54 320.435841,104.28 320.355841,100.84 L320.355841,100.84 L320.235841,96.16 L320.355841,91.48 C320.595841,85.8 322.315841,80.86 325.515841,76.66 C328.715841,72.46 333.475841,70.36 339.795841,70.36 C346.835841,70.36 351.795841,72.74 354.675841,77.5 C357.555841,82.26 358.995841,88.36 358.995841,95.8 C358.995841,97.24 358.955841,98.36 358.875841,99.16 C358.635841,105.64 357.015841,110.94 354.015841,115.06 C351.015841,119.18 346.275841,121.24 339.795841,121.24 Z M387.435841,127 C388.235841,127 388.875841,126.76 389.355841,126.28 C389.835841,125.8 390.075841,125.16 390.075841,124.36 L390.075841,124.36 L390.075841,90.88 C390.075841,84.48 391.795841,79.46 395.235841,75.82 C398.675841,72.18 403.275841,70.36 409.035841,70.36 C414.955841,70.36 419.495841,72.16 422.655841,75.76 C425.815841,79.36 427.395841,84.4 427.395841,90.88 L427.395841,90.88 L427.395841,124.36 C427.395841,125.16 427.635841,125.8 428.115841,126.28 C428.595841,126.76 429.235841,127 430.035841,127 L430.035841,127 L432.075841,127 C432.875841,127 433.515841,126.76 433.995841,126.28 C434.475841,125.8 434.715841,125.16 434.715841,124.36 L434.715841,124.36 L434.715841,90.28 C434.715841,82.36 432.595841,75.9 428.355841,70.9 C424.115841,65.9 418.075841,63.4 410.235841,63.4 C405.355841,63.4 401.375841,64.2 398.295841,65.8 C395.215841,67.4 392.475841,69.76 390.075841,72.88 L390.075841,72.88 L390.075841,44.44 C390.075841,43.64 389.835841,43 389.355841,42.52 C388.875841,42.04 388.235841,41.8 387.435841,41.8 L387.435841,41.8 L385.395841,41.8 C384.595841,41.8 383.955841,42.04 383.475841,42.52 C382.995841,43 382.755841,43.64 382.755841,44.44 L382.755841,44.44 L382.755841,124.36 C382.755841,125.16 382.995841,125.8 383.475841,126.28 C383.955841,126.76 384.595841,127 385.395841,127 L385.395841,127 L387.435841,127 Z M477.315841,128.2 C485.635841,128.2 492.095841,125.66 496.695841,120.58 C501.295841,115.5 503.715841,108.92 503.955841,100.84 C504.035841,100.04 504.075841,98.36 504.075841,95.8 C504.075841,93.24 504.035841,91.56 503.955841,90.76 C503.715841,82.68 501.295841,76.1 496.695841,71.02 C492.095841,65.94 485.635841,63.4 477.315841,63.4 C468.995841,63.4 462.535841,65.94 457.935841,71.02 C453.335841,76.1 450.915841,82.68 450.675841,90.76 L450.675841,90.76 L450.555841,95.8 L450.675841,100.84 C450.915841,108.92 453.335841,115.5 457.935841,120.58 C462.535841,125.66 468.995841,128.2 477.315841,128.2 Z M477.315841,121.24 C471.635841,121.24 467.055841,119.42 463.575841,115.78 C460.095841,112.14 458.235841,106.96 457.995841,100.24 L457.995841,100.24 L457.875841,95.8 L457.995841,91.36 C458.235841,84.64 460.095841,79.46 463.575841,75.82 C467.055841,72.18 471.635841,70.36 477.315841,70.36 C482.995841,70.36 487.575841,72.18 491.055841,75.82 C494.535841,79.46 496.395841,84.64 496.635841,91.36 C496.715841,92.16 496.755841,93.64 496.755841,95.8 C496.755841,97.96 496.715841,99.44 496.635841,100.24 C496.395841,106.96 494.535841,112.14 491.055841,115.78 C487.575841,119.42 482.995841,121.24 477.315841,121.24 Z M525.195841,127 C525.995841,127 526.635841,126.76 527.115841,126.28 C527.595841,125.8 527.835841,125.16 527.835841,124.36 L527.835841,124.36 L527.835841,90.88 C527.835841,84.48 529.555841,79.46 532.995841,75.82 C536.435841,72.18 541.035841,70.36 546.795841,70.36 C552.715841,70.36 557.255841,72.16 560.415841,75.76 C563.575841,79.36 565.155841,84.4 565.155841,90.88 L565.155841,90.88 L565.155841,124.36 C565.155841,125.16 565.395841,125.8 565.875841,126.28 C566.355841,126.76 566.995841,127 567.795841,127 L567.795841,127 L569.835841,127 C570.635841,127 571.275841,126.76 571.755841,126.28 C572.235841,125.8 572.475841,125.16 572.475841,124.36 L572.475841,124.36 L572.475841,90.28 C572.475841,82.36 570.355841,75.9 566.115841,70.9 C561.875841,65.9 555.835841,63.4 547.995841,63.4 C543.115841,63.4 539.135841,64.2 536.055841,65.8 C532.975841,67.4 530.235841,69.76 527.835841,72.88 L527.835841,72.88 L527.835841,67.24 C527.835841,66.44 527.595841,65.8 527.115841,65.32 C526.635841,64.84 525.995841,64.6 525.195841,64.6 L525.195841,64.6 L523.155841,64.6 C522.355841,64.6 521.715841,64.84 521.235841,65.32 C520.755841,65.8 520.515841,66.44 520.515841,67.24 L520.515841,67.24 L520.515841,124.36 C520.515841,125.16 520.755841,125.8 521.235841,126.28 C521.715841,126.76 522.355841,127 523.155841,127 L523.155841,127 L525.195841,127 Z" id="syphon"></path>
                    <path d="M30.5150178,52 L73.2134419,-2.55795385e-13 L113.765018,52 L30.5150178,52 Z M68.5373693,132 L2.61774674,121.285714 L25.9394904,59.6190476 L68.5373693,132 Z M68.5373693,132 L2.61774674,121.285714 L25.9394904,59.6190476 L68.5373693,132 Z M118.03658,59.8571429 L143.500117,121.52381 L77.5804944,132.238095 L118.03658,59.8571429 Z M118.750511,51.2857143 L79.2463332,1.04761905 L143.500117,38.1904762 L118.750511,51.2857143 Z M24.9875825,51.2857143 L2.61774674,38.1904762 L66.3955765,1.28571429 L24.9875825,51.2857143 Z M22.6078128,55.3333333 L-1.42108547e-13,114.857143 L-1.42108547e-13,42.2380952 L22.6078128,55.3333333 Z M70.679162,137.238095 L70.679162,165.095238 L3.80763163,126.52381 L70.679162,137.238095 Z M75.4387016,137.238095 L142.310232,126.52381 L75.4387016,165.095238 L75.4387016,137.238095 Z M2.27183013,131.358053 L65.9836779,167.762792 L2.27183013,171.728284 L2.27183013,131.358053 Z M146.355841,42 L146.355841,115.571429 L121.368258,55.3333333 L146.355841,42 Z" id="tether_icon_white_beta"></path>
                </g>
            </g>
        </g>
    </g>
</svg>