<?xml version="1.0" encoding="UTF-8"?>
<svg width="32px" height="16px" viewBox="0 0 32 16" version="1.1" xmlns="http://www.w3.org/2000/svg" xmlns:xlink="http://www.w3.org/1999/xlink">
    <title>group-add-rounded</title>
    <g id="Page-1" stroke="none" stroke-width="1" fill="none" fill-rule="evenodd">
        <g id="icons" transform="translate(-122.000000, -186.000000)" fill="#000000">
            <g id="group-add-rounded" transform="translate(123.000000, 186.000000)">
                <g id="group" transform="translate(9.000000, 0.000000)" fill-rule="nonzero">
                    <path d="M15.67,9.13 C17.04,10.06 18,11.32 18,13 L18,16 L22,16 L22,13 C22,10.82 18.43,9.53 15.67,9.13 L15.67,9.13 Z" id="Path"></path>
                    <circle id="Oval" cx="8" cy="4" r="4"></circle>
                    <path d="M14,8 C16.21,8 18,6.21 18,4 C18,1.79 16.21,0 14,0 C13.53,0 13.09,0.1 12.67,0.24 C13.5,1.27 14,2.58 14,4 C14,5.42 13.5,6.73 12.67,7.76 C13.09,7.9 13.53,8 14,8 Z M8,9 C5.33,9 0,10.34 0,13 L0,16 L16,16 L16,13 C16,10.34 10.67,9 8,9 Z" id="Shape"></path>
                </g>
                <polygon id="Path" stroke="#000000" stroke-linejoin="round" points="8 7 5 7 5 4 3 4 3 7 0 7 0 9 3 9 3 12 5 12 5 9 8 9"></polygon>
            </g>
        </g>
    </g>
</svg>