<?xml version="1.0" encoding="UTF-8"?>
<svg width="33px" height="21px" viewBox="0 0 33 21" version="1.1" xmlns="http://www.w3.org/2000/svg" xmlns:xlink="http://www.w3.org/1999/xlink">
    <title>being-search-public</title>
    <g id="Page-1" stroke="none" stroke-width="1" fill="none" fill-rule="evenodd">
        <g id="being-icons" transform="translate(-122.000000, -136.000000)" fill="#000000" fill-rule="nonzero">
            <g id="being-search-public" transform="translate(122.000000, 136.000000)">
                <path d="M20.1761006,-3.55271368e-15 C24.6918239,-3.55271368e-15 28.3522013,3.66037736 28.3522013,8.17610063 C28.3522013,9.86373166 27.8368274,11.4378057 26.9516655,12.7454577 L26.819,12.932 L27.7232704,13.836478 L28.27,14.475 L32.6282509,18.8332875 C32.937619,19.1426556 33.0538959,19.5719952 32.9770817,19.9715466 L33,20 L32.9620078,20.0397784 C32.9081075,20.2554083 32.7968552,20.4596466 32.6282509,20.6282509 C32.4596466,20.7968552 32.2554083,20.9081075 32.0397784,20.9620078 L32,21 L31.9715466,20.9770817 C31.6146723,21.0456912 31.2340334,20.9602557 30.9363444,20.7207751 L30.8332875,20.6282509 L26.475,16.27 L25.836478,15.7232704 L24.932,14.819 L24.7454577,14.9516655 C23.5249825,15.7778166 22.0724241,16.2818412 20.5120674,16.3453727 L20.1761006,16.3522013 C15.6603774,16.3522013 12,12.6918239 12,8.17610063 C12,3.66037736 15.6603774,-3.55271368e-15 20.1761006,-3.55271368e-15 Z M20.1761006,2.51572327 C17.0440252,2.51572327 14.5157233,5.04402516 14.5157233,8.17610063 C14.5157233,11.3081761 17.0440252,13.836478 20.1761006,13.836478 C23.3081761,13.836478 25.836478,11.3081761 25.836478,8.17610063 C25.836478,5.04402516 23.3081761,2.51572327 20.1761006,2.51572327 Z" id="Shape"></path>
                <path d="M9,3 C4.032,3 0,7.032 0,12 C0,16.968 4.032,21 9,21 C13.968,21 18,16.968 18,12 C18,7.032 13.968,3 9,3 Z M8.1,19.137 C4.545,18.696 1.8,15.672 1.8,12 C1.8,11.442 1.872,10.911 1.989,10.389 L6.3,14.7 L6.3,15.6 C6.3,16.59 7.11,17.4 8.1,17.4 L8.1,19.137 Z M14.31,16.851 C14.076,16.122 13.41,15.6 12.6,15.6 L11.7,15.6 L11.7,12.9 C11.7,12.405 11.295,12 10.8,12 L5.4,12 L5.4,10.2 L7.2,10.2 C7.695,10.2 8.1,9.795 8.1,9.3 L8.1,7.5 L9.9,7.5 C10.89,7.5 11.7,6.69 11.7,5.7 L11.7,5.331 C14.337,6.402 16.2,8.985 16.2,12 C16.2,13.872 15.48,15.573 14.31,16.851 Z" id="Shape"></path>
            </g>
        </g>
    </g>
</svg>