<?xml version="1.0" encoding="UTF-8"?>
<svg width="22px" height="24px" viewBox="0 0 22 24" version="1.1" xmlns="http://www.w3.org/2000/svg" xmlns:xlink="http://www.w3.org/1999/xlink">
    <title>send-lock</title>
    <g id="Page-1" stroke="none" stroke-width="1" fill="none" fill-rule="evenodd">
        <g id="being-icons" transform="translate(-73.000000, -111.000000)" fill="#000000" fill-rule="nonzero">
            <g id="send-lock" transform="translate(73.000000, 111.000000)">
                <path d="M0.0868812458,1.702806 C-0.303265404,0.688424708 0.690579251,-0.282463809 1.67316865,0.0760047398 L1.67316865,0.0760047398 L1.79583278,0.12783006 L20.8877159,9.32021822 C21.8313565,9.77456371 21.8313565,11.1183769 20.8877159,11.5727224 C19.973126,12.0130805 19.1126931,12.427363 18.306417,12.81557 C17.7936625,11.9258619 17.030256,11.2902668 16.1507709,11.0776422 L17.4654004,10.4457632 L3.5523674,3.74663355 L5.95577917,9.99774645 C6.05099973,10.2453199 6.06460267,10.5156252 5.99658798,10.7696935 L5.99658798,10.7696935 L5.95577917,10.8951942 L3.5523674,17.1448928 L12.7501789,12.7157521 C12.2803556,13.4817417 12,14.4487762 12,15.5 C12,15.616699 12.003455,15.7323604 12.0102408,15.8468245 C9.70185242,16.9585085 6.29640595,18.5981679 1.79583278,20.7651105 C0.775802401,21.2562363 -0.319521514,20.2467818 0.0868812458,19.1901346 L0.0868812458,19.1901346 L3.44912981,10.4457632 Z" id="Combined-Shape"></path>
                <path d="M15,10 C17.1094209,10 18.8283199,11.672023 18.9036738,13.7630457 L18.90625,13.90625 L18.906919,15.9515704 C19.5161979,16.2314996 19.9496179,16.8284661 19.9958952,17.5311858 L20,17.65625 L20,22.03125 C20,23.0298006 19.219425,23.846038 18.2351705,23.9030671 L18.125,23.90625 L11.875,23.90625 C10.8764494,23.90625 10.060212,23.125675 10.0031829,22.1414205 L10,22.03125 L10,17.65625 C10,16.8995511 10.4482504,16.2475467 11.0937036,15.9512845 L11.09375,13.90625 C11.09375,11.7488877 12.8426377,10 15,10 Z M15,11.5625 C13.747338,11.5625 12.7242039,12.5452257 12.6594988,13.7817759 L12.65625,13.90625 L12.65625,15.78125 L17.34375,15.78125 L17.34375,13.90625 C17.34375,12.6118326 16.2944174,11.5625 15,11.5625 Z" id="lock"></path>
            </g>
        </g>
    </g>
</svg>