<?xml version="1.0" encoding="UTF-8"?>
<svg width="25px" height="30px" viewBox="0 0 25 30" version="1.1" xmlns="http://www.w3.org/2000/svg" xmlns:xlink="http://www.w3.org/1999/xlink">
    <title>being-message-syphon</title>
    <g id="Page-1" stroke="none" stroke-width="1" fill="none" fill-rule="evenodd">
        <g id="being-icons" transform="translate(-49.000000, -8.000000)" fill="#000000" fill-rule="nonzero">
            <g id="being-message-syphon" transform="translate(50.000000, 8.000000)">
                <path d="M0.18,22.5714286 L-1.42108547e-14,29.5714286 L9,28.0977444 C8.98776139,28.0919095 6.04776139,26.2498042 0.18,22.5714286 Z" id="Path" stroke="#000000" stroke-width="0.5" stroke-linejoin="round"></path>
                <path d="M11.2900898,0.769844565 L0.261071973,7.54438696 C0.0989864827,7.64394751 4.10686538e-06,7.82196489 4.10686538e-06,8.01391115 L4.10686538e-06,20.2338136 C4.10686538e-06,20.4257598 0.0989864827,20.6037772 0.261071973,20.7033378 L11.2900898,27.4778802 C11.4629865,27.5840814 11.6798789,27.5840814 11.8527755,27.4778802 L22.8817934,20.7033378 C23.0438789,20.6037772 23.1428612,20.4257598 23.1428612,20.2338136 L23.1428612,8.01391115 C23.1428612,7.82196489 23.0438789,7.64394751 22.8817934,7.54438696 L11.8527755,0.769844565 C11.6798789,0.663643299 11.4629865,0.663643299 11.2900898,0.769844565 Z" id="Combined-Shape"></path>
            </g>
        </g>
    </g>
</svg>