<?xml version="1.0" encoding="UTF-8"?>
<svg width="23px" height="19px" viewBox="0 0 23 19" version="1.1" xmlns="http://www.w3.org/2000/svg" xmlns:xlink="http://www.w3.org/1999/xlink">
    <title>being-chevrons-right</title>
    <g id="Page-1" stroke="none" stroke-width="1" fill="none" fill-rule="evenodd">
        <g id="being-icons" transform="translate(-152.000000, -77.000000)" fill="#000000" fill-rule="nonzero">
            <g id="being-chevrons-right" transform="translate(152.000000, 77.000000)">
                <path d="M14.2369733,0.428261656 L14.3678888,0.5409321 L22.3678888,8.0409321 C23.1685712,8.79157192 23.2086054,10.0365176 22.4879911,10.836588 L22.3678888,10.9590809 L14.3678888,18.4590809 C13.5620642,19.2145414 12.2963926,19.1737133 11.5409321,18.3678888 C10.8252327,17.604476 10.8242078,16.4283474 11.5112507,15.6643139 L11.6321243,15.5409321 L18.0750065,9.49900651 L11.6321243,3.45908092 C10.8687115,2.74338149 10.7918884,1.56976406 11.4282617,0.76303972 L11.5409321,0.63212425 C12.2566315,-0.131288476 13.430249,-0.208111611 14.2369733,0.428261656 Z M3.23696679,0.428255148 L3.36788226,0.540925592 L11.3678823,8.04092559 C12.1685647,8.79156541 12.2085989,10.0365111 11.4879846,10.8365815 L11.3678823,10.9590744 L3.36788226,18.4590744 C2.56205771,19.2145349 1.2963861,19.1737068 0.540925592,18.3678823 C-0.174773839,17.6044695 -0.175798713,16.4283409 0.511244161,15.6643074 L0.632117742,15.5409256 L7.075,9.49999349 L0.632117742,3.45907441 C-0.131294984,2.74337498 -0.208118119,1.56975755 0.428255148,0.763033212 L0.540925592,0.632117742 C1.25662502,-0.131294984 2.43024245,-0.208118119 3.23696679,0.428255148 Z"></path>
            </g>
        </g>
    </g>
</svg>