<?xml version="1.0" encoding="UTF-8"?>
<svg width="24px" height="24px" viewBox="0 0 24 24" version="1.1" xmlns="http://www.w3.org/2000/svg" xmlns:xlink="http://www.w3.org/1999/xlink">
    <title>being-search-public-condensed</title>
    <g id="Page-1" stroke="none" stroke-width="1" fill="none" fill-rule="evenodd">
        <g id="being-icons" transform="translate(-126.000000, -109.000000)" fill="#000000" fill-rule="nonzero">
            <g id="being-search-public-condensed" transform="translate(126.000000, 109.000000)">
                <path d="M17.1526587,15.0943396 L15.780446,13.7221269 L15.6843911,14.7238422 C17.0291595,13.1595197 17.838765,11.1286449 17.838765,8.9193825 C17.838765,3.99313894 13.8456261,0 8.9193825,0 C3.99313894,0 0,3.99313894 0,8.9193825 C0,13.8456261 3.99313894,17.838765 8.9193825,17.838765 C11.1286449,17.838765 13.1595197,17.0291595 14.7238422,15.6843911 L13.7221269,15.780446 L15.0943396,17.1526587 L22,23.5 L23.5,22 L17.1526587,15.0943396 Z M8.9193825,15.0943396 C5.5025729,15.0943396 2.74442539,12.3361921 2.74442539,8.9193825 C2.74442539,5.5025729 5.5025729,2.74442539 8.9193825,2.74442539 C12.3361921,2.74442539 15.0943396,5.5025729 15.0943396,8.9193825 C15.0943396,12.3361921 12.3361921,15.0943396 8.9193825,15.0943396 Z" id="Shape"></path>
                <path d="M8.90181818,1.09090909 C4.59019636,1.09090909 1.09090909,4.59019636 1.09090909,8.90181818 C1.09090909,13.21344 4.59019636,16.7127273 8.90181818,16.7127273 C13.21344,16.7127273 16.7127273,13.21344 16.7127273,8.90181818 C16.7127273,4.59019636 13.21344,1.09090909 8.90181818,1.09090909 Z M8.12072727,15.0958691 C5.03541818,14.7131345 2.65309091,12.0886691 2.65309091,8.90181818 C2.65309091,8.41754182 2.71557818,7.95669818 2.81712,7.50366545 L6.55854545,11.2450909 L6.55854545,12.0261818 C6.55854545,12.8853818 7.26152727,13.5883636 8.12072727,13.5883636 L8.12072727,15.0958691 Z M13.5102545,13.1118982 C13.3071709,12.4792145 12.7291636,12.0261818 12.0261818,12.0261818 L11.2450909,12.0261818 L11.2450909,9.68290909 C11.2450909,9.25330909 10.8936,8.90181818 10.464,8.90181818 L5.77745455,8.90181818 L5.77745455,7.33963636 L7.33963636,7.33963636 C7.76923636,7.33963636 8.12072727,6.98814545 8.12072727,6.55854545 L8.12072727,4.99636364 L9.68290909,4.99636364 C10.5421091,4.99636364 11.2450909,4.29338182 11.2450909,3.43418182 L11.2450909,3.11393455 C13.5336873,4.04343273 15.1505455,6.28516364 15.1505455,8.90181818 C15.1505455,10.5264873 14.5256727,12.0027491 13.5102545,13.1118982 Z" id="Shape"></path>
                <path d="M14.4130545,14.4130545 C14.927078,13.8990311 15.7391831,13.8647629 16.2929507,14.3102499 L16.4074583,14.4130545 L23.5869455,21.5925417 C24.1376848,22.1432811 24.1376848,23.0362061 23.5869455,23.5869455 C23.072922,24.1009689 22.2608169,24.1352371 21.7070493,23.6897501 L21.5925417,23.5869455 L14.4130545,16.4074583 C13.8623152,15.8567189 13.8623152,14.9637939 14.4130545,14.4130545 Z" id="Line"></path>
            </g>
        </g>
    </g>
</svg>