<?xml version="1.0" encoding="UTF-8"?>
<svg width="22px" height="24px" viewBox="0 0 22 24" version="1.1" xmlns="http://www.w3.org/2000/svg" xmlns:xlink="http://www.w3.org/1999/xlink">
    <title>send-unlocked</title>
    <g id="Page-1" stroke="none" stroke-width="1" fill="none" fill-rule="evenodd">
        <g id="being-icons" transform="translate(-95.000000, -111.000000)" fill="#000000" fill-rule="nonzero">
            <g id="send-unlocked" transform="translate(95.000000, 111.000000)">
                <path d="M0.0868812458,1.702806 C-0.303265404,0.688424708 0.690579251,-0.282463809 1.67316865,0.0760047398 L1.67316865,0.0760047398 L1.79583278,0.12783006 L20.8877159,9.32021822 C21.8313565,9.77456371 21.8313565,11.1183769 20.8877159,11.5727224 C20.1009399,11.9515405 19.3542416,12.3110619 18.647621,12.6512866 C18.3119285,11.8131077 17.7538019,11.1110721 17.0579497,10.6404681 L17.4654004,10.4457632 L3.5523674,3.74663355 L5.95577917,9.99774645 C6.05099973,10.2453199 6.06460267,10.5156252 5.99658798,10.7696935 L5.99658798,10.7696935 L5.95577917,10.8951942 L3.5523674,17.1448928 L11.0968018,13.5115562 C11.0334344,13.8296263 11,14.1604206 11,14.5 C11,15.098622 11.1039001,15.6699433 11.2925194,16.1923856 C9.01719007,17.2881607 5.85107295,18.8125875 1.79583278,20.7651105 C0.775802401,21.2562363 -0.319521514,20.2467818 0.0868812458,19.1901346 L0.0868812458,19.1901346 L3.44912981,10.4457632 Z" id="Combined-Shape"></path>
                <path d="M18.9812521,13.2190116 C19.0842851,13.720919 18.7564713,14.210414 18.2490594,14.3123293 C17.7714953,14.4082496 17.3050468,14.1266603 17.1659237,13.6747568 L17.1437511,13.5880796 C16.9201135,12.498668 15.8983048,11.7541254 14.7801591,11.8658441 C13.7019472,11.9735729 12.8724726,12.8436914 12.8156118,13.9032825 L12.8125,14.0217655 L12.812,15.873 L18.125,15.8731417 C19.1112228,15.8731417 19.9196062,16.6263022 19.9943588,17.5828608 L20,17.7278013 L20,22.0553404 C20,23.0796406 19.1605339,23.91 18.125,23.91 L18.125,23.91 L11.875,23.91 C10.8394661,23.91 10,23.0796406 10,22.0553404 L10,22.0553404 L10,17.7278013 C10,17.0413363 10.3770383,16.4419779 10.937449,16.1212914 L10.9374984,14.0226965 C10.935405,11.9582163 12.5151682,10.228052 14.591724,10.0205743 C16.6682804,9.81309662 18.565925,11.1958187 18.9812521,13.2190116 Z" id="Combined-Shape"></path>
            </g>
        </g>
    </g>
</svg>