<?xml version="1.0" encoding="UTF-8"?>
<svg width="31px" height="19px" viewBox="0 0 31 19" version="1.1" xmlns="http://www.w3.org/2000/svg" xmlns:xlink="http://www.w3.org/1999/xlink">
    <title>person-add</title>
    <g id="Page-1" stroke="none" stroke-width="1" fill="none" fill-rule="evenodd">
        <g id="icons" transform="translate(-122.000000, -162.000000)" fill="#000000">
            <g id="person-add" transform="translate(123.000000, 162.000000)">
                <path d="M20,10 C22.7625,10 25,7.7625 25,5 C25,2.2375 22.7625,0 20,0 C17.2375,0 15,2.2375 15,5 C15,7.7625 17.2375,10 20,10 Z M20,11.5 C16.6625,11.5 10,13.175 10,16.5 L10,19 L30,19 L30,16.5 C30,13.175 23.3375,11.5 20,11.5 Z" id="Shape" fill-rule="nonzero"></path>
                <polygon id="Path" stroke="#000000" stroke-linejoin="round" points="8 8 5 8 5 5 3 5 3 8 0 8 0 10 3 10 3 13 5 13 5 10 8 10"></polygon>
            </g>
        </g>
    </g>
</svg>