<?xml version="1.0" encoding="UTF-8"?>
<svg width="31px" height="20px" viewBox="0 0 31 20" version="1.1" xmlns="http://www.w3.org/2000/svg" xmlns:xlink="http://www.w3.org/1999/xlink">
    <title>public-add</title>
    <g id="Page-1" stroke="none" stroke-width="1" fill="none" fill-rule="evenodd">
        <g id="icons" transform="translate(-122.000000, -190.000000)" fill="#000000">
            <g id="public-add" transform="translate(123.000000, 190.000000)">
                <g id="globe" transform="translate(10.000000, 0.000000)" fill-rule="nonzero">
                    <path d="M10,0 C4.48,0 0,4.48 0,10 C0,15.52 4.48,20 10,20 C15.52,20 20,15.52 20,10 C20,4.48 15.52,0 10,0 Z M9,17.93 C5.05,17.44 2,14.08 2,10 C2,9.38 2.08,8.79 2.21,8.21 L7,13 L7,14 C7,15.1 7.9,16 9,16 L9,17.93 Z M15.9,15.39 C15.64,14.58 14.9,14 14,14 L13,14 L13,11 C13,10.45 12.55,10 12,10 L6,10 L6,8 L8,8 C8.55,8 9,7.55 9,7 L9,5 L11,5 C12.1,5 13,4.1 13,3 L13,2.59 C15.93,3.78 18,6.65 18,10 C18,12.08 17.2,13.97 15.9,15.39 Z" id="Shape"></path>
                </g>
                <polygon id="Path" stroke="#000000" stroke-linejoin="round" points="8 9 5 9 5 6 3 6 3 9 0 9 0 11 3 11 3 14 5 14 5 11 8 11"></polygon>
            </g>
        </g>
    </g>
</svg>