<?xml version="1.0" encoding="UTF-8"?>
<svg width="18px" height="22px" viewBox="0 0 18 22" version="1.1" xmlns="http://www.w3.org/2000/svg" xmlns:xlink="http://www.w3.org/1999/xlink">
    <title>being-message-syphon</title>
    <g id="Page-1" stroke="none" stroke-width="1" fill="none" fill-rule="evenodd">
        <g id="being-icons" transform="translate(-49.000000, -12.000000)" fill="#000000" fill-rule="nonzero">
            <g id="being-message-syphon" transform="translate(50.000000, 12.000000)">
                <path d="M0.146666667,16 L-9.32587341e-15,21.5 L7.33333333,20.3421053 C7.32336114,20.3375207 4.92780558,18.8901523 0.146666667,16 Z" id="Path" stroke="#000000" stroke-width="0.5" stroke-linejoin="round"></path>
                <path d="M8.80549136,0.0563274288 L1.18049136,4.84713729 C1.06843226,4.91754436 1,5.04343441 1,5.17917465 L1,13.8208254 C1,13.9565656 1.06843226,14.0824556 1.18049136,14.1528627 L8.80549136,18.9436726 C8.92502485,19.0187758 9.07497515,19.0187758 9.19450864,18.9436726 L16.8195086,14.1528627 C16.9315677,14.0824556 17,13.9565656 17,13.8208254 L17,5.17917465 C17,5.04343441 16.9315677,4.91754436 16.8195086,4.84713729 L9.19450864,0.0563274288 C9.07497515,-0.0187758096 8.92502485,-0.0187758096 8.80549136,0.0563274288 Z" id="Combined-Shape"></path>
            </g>
        </g>
    </g>
</svg>