<svg height='100px' width='100px'  fill="#000000" xmlns="http://www.w3.org/2000/svg" xmlns:xlink="http://www.w3.org/1999/xlink" version="1.1" x="0px" y="0px" viewBox="0 0 100 100" style="enable-background:new 0 0 100 100;" xml:space="preserve"><g><path d="M50,12.2L17.3,31.1v37.8L50,87.8l32.7-18.9V31.1L50,12.2z M32.1,37.4L50,16l17,21.4H32.1z M48.1,71l-27.7-4.5l9.8-25.9   L48.1,71z M68.9,40.7l10.7,25.9l-27.7,4.5L68.9,40.7z M69.2,37.1L52.6,16l27,15.6L69.2,37.1z M29.8,37.1l-9.4-5.5l26.8-15.5   L29.8,37.1z M28.8,38.8l-9.5,25V33.3L28.8,38.8z M49,73.2v11.7L20.9,68.7L49,73.2z M51,73.2l28.1-4.5L51,84.9V73.2z M70.3,38.8   l10.5-5.6v30.9L70.3,38.8z"></path></g></svg>