<?xml version="1.0" encoding="UTF-8"?>
<svg width="566px" height="132px" viewBox="0 0 566 132" version="1.1" xmlns="http://www.w3.org/2000/svg" xmlns:xlink="http://www.w3.org/1999/xlink">
    <title>Group 2</title>
    <g id="Page-1" stroke="none" stroke-width="1" fill="none" fill-rule="evenodd">
        <g id="banners" transform="translate(-1339.000000, -5181.000000)" fill="#FEFEFE" fill-rule="nonzero">
            <g id="app_outline_reversed_final" transform="translate(1110.000000, 4997.000000)">
                <g id="Group-2" transform="translate(229.000000, 184.000000)">
                    <path d="M178.146204,108.8 C183.559538,108.8 188.199538,107.940741 192.066204,106.222222 C195.932871,104.503704 198.854352,102.183704 200.830649,99.2622222 C202.806945,96.3407407 203.795093,93.1185185 203.795093,89.5955556 C203.795093,84.6118519 202.162501,80.6162963 198.897315,77.6088889 C195.63213,74.6014815 190.003982,72.1955556 182.012871,70.3911111 C176.599538,69.1881481 172.475093,68.0066667 169.639538,66.8466667 C166.803982,65.6866667 164.870649,64.4192593 163.839538,63.0444444 C162.808427,61.6696296 162.292871,59.9511111 162.292871,57.8888889 C162.292871,54.5377778 163.58176,51.8311111 166.159538,49.7688889 C168.737315,47.7066667 172.518056,46.6755556 177.50176,46.6755556 C182.14176,46.6755556 185.557315,47.3414815 187.748427,48.6733333 C189.939538,50.0051852 191.894352,51.96 193.612871,54.5377778 C194.300278,55.6548148 195.245464,56.2133333 196.448427,56.2133333 L196.448427,56.2133333 L198.38176,56.2133333 C199.155093,56.2133333 199.821019,55.977037 200.379538,55.5044444 C200.938056,55.0318519 201.217315,54.4088889 201.217315,53.6355556 C201.217315,52.1748148 200.336575,50.2844444 198.575093,47.9644444 C196.813612,45.6444444 194.149908,43.6037037 190.583982,41.8422222 C187.018056,40.0807407 182.657315,39.2 177.50176,39.2 C172.603982,39.2 168.415093,40.1022222 164.935093,41.9066667 C161.455093,43.7111111 158.834352,46.0311111 157.072871,48.8666667 C155.31139,51.7022222 154.430649,54.7096296 154.430649,57.8888889 C154.430649,62.5288889 155.826945,66.3525926 158.619538,69.36 C161.41213,72.3674074 166.63213,74.7303704 174.279538,76.4488889 C180.122501,77.8237037 184.526204,79.0481481 187.490649,80.1222222 C190.455093,81.1962963 192.603241,82.4637037 193.935093,83.9244444 C195.266945,85.3851852 195.932871,87.2755556 195.932871,89.5955556 C195.932871,93.3762963 194.300278,96.2762963 191.035093,98.2955556 C187.769908,100.314815 183.473612,101.324444 178.146204,101.324444 C173.420278,101.324444 169.703982,100.572593 166.997315,99.0688889 C164.290649,97.5651852 161.99213,95.4814815 160.10176,92.8177778 C159.586204,92.1303704 159.135093,91.6792593 158.748427,91.4644444 C158.36176,91.2496296 157.867686,91.1422222 157.266204,91.1422222 L157.266204,91.1422222 L155.332871,91.1422222 C154.645464,91.1422222 154.001019,91.3785185 153.399538,91.8511111 C152.798056,92.3237037 152.497315,92.9466667 152.497315,93.72 C152.497315,95.1807407 153.463982,97.1140741 155.397315,99.52 C157.330649,101.925926 160.209167,104.074074 164.032871,105.964444 C167.856575,107.854815 172.561019,108.8 178.146204,108.8 Z M232.02176,132 C233.396575,132 234.384723,131.355556 234.986204,130.066667 L234.986204,130.066667 L271.590649,45.6444444 C272.106204,44.3555556 272.363982,43.4962963 272.363982,43.0666667 C272.363982,42.3792593 272.106204,41.7777778 271.590649,41.2622222 C271.075093,40.7466667 270.473612,40.4888889 269.786204,40.4888889 L269.786204,40.4888889 L267.208427,40.4888889 C265.919538,40.4888889 264.93139,41.1333333 264.243982,42.4222222 L264.243982,42.4222222 L242.075093,93.4622222 L220.42176,42.4222222 C219.820278,41.1333333 218.83213,40.4888889 217.457315,40.4888889 L217.457315,40.4888889 L214.750649,40.4888889 C214.063241,40.4888889 213.46176,40.7466667 212.946204,41.2622222 C212.430649,41.7777778 212.172871,42.3792593 212.172871,43.0666667 C212.172871,43.4962963 212.430649,44.3555556 212.946204,45.6444444 L212.946204,45.6444444 L237.563982,103.644444 L227.639538,126.844444 C227.123982,128.133333 226.866204,128.992593 226.866204,129.422222 C226.866204,130.10963 227.123982,130.711111 227.639538,131.226667 C228.155093,131.742222 228.756575,132 229.443982,132 L229.443982,132 L232.02176,132 Z M291.826204,132 C292.685464,132 293.372871,131.742222 293.888427,131.226667 C294.403982,130.711111 294.66176,130.023704 294.66176,129.164444 L294.66176,129.164444 L294.66176,98.6177778 C299.73139,105.405926 306.949167,108.8 316.315093,108.8 C325.595093,108.8 332.447686,105.857037 336.872871,99.9711111 C341.298056,94.0851852 343.639538,86.8459259 343.897315,78.2533333 C343.983241,77.3940741 344.026204,75.9762963 344.026204,74 C344.026204,72.0237037 343.983241,70.6059259 343.897315,69.7466667 C343.639538,61.1540741 341.298056,53.9148148 336.872871,48.0288889 C332.447686,42.142963 325.595093,39.2 316.315093,39.2 C306.863241,39.2 299.645464,42.5940741 294.66176,49.3822222 L294.66176,49.3822222 L294.66176,43.3244444 C294.66176,42.4651852 294.403982,41.7777778 293.888427,41.2622222 C293.372871,40.7466667 292.685464,40.4888889 291.826204,40.4888889 L291.826204,40.4888889 L289.635093,40.4888889 C288.775834,40.4888889 288.088427,40.7466667 287.572871,41.2622222 C287.057315,41.7777778 286.799538,42.4651852 286.799538,43.3244444 L286.799538,43.3244444 L286.799538,129.164444 C286.799538,130.023704 287.057315,130.711111 287.572871,131.226667 C288.088427,131.742222 288.775834,132 289.635093,132 L289.635093,132 L291.826204,132 Z M315.54176,101.324444 C310.987686,101.324444 307.163982,100.25037 304.070649,98.1022222 C300.977315,95.9540741 298.657315,93.2259259 297.110649,89.9177778 C295.563982,86.6096296 294.747686,83.1081481 294.66176,79.4133333 L294.66176,79.4133333 L294.532871,74.3866667 L294.66176,69.36 C294.919538,63.2592593 296.766945,57.9533333 300.203982,53.4422222 C303.641019,48.9311111 308.753612,46.6755556 315.54176,46.6755556 C323.103241,46.6755556 328.430649,49.2318519 331.523982,54.3444444 C334.617315,59.457037 336.163982,66.0088889 336.163982,74 C336.163982,75.5466667 336.121019,76.7496296 336.035093,77.6088889 C335.777315,84.5688889 334.037315,90.2614815 330.815093,94.6866667 C327.592871,99.1118519 322.50176,101.324444 315.54176,101.324444 Z M366.710649,107.511111 C367.569908,107.511111 368.257315,107.253333 368.772871,106.737778 C369.288427,106.222222 369.546204,105.534815 369.546204,104.675556 L369.546204,104.675556 L369.546204,68.7155556 C369.546204,61.8414815 371.393612,56.4496296 375.088427,52.54 C378.783241,48.6303704 383.723982,46.6755556 389.910649,46.6755556 C396.269167,46.6755556 401.145464,48.6088889 404.539538,52.4755556 C407.933612,56.3422222 409.630649,61.7555556 409.630649,68.7155556 L409.630649,68.7155556 L409.630649,104.675556 C409.630649,105.534815 409.888427,106.222222 410.403982,106.737778 C410.919538,107.253333 411.606945,107.511111 412.466204,107.511111 L412.466204,107.511111 L414.657315,107.511111 C415.516575,107.511111 416.203982,107.253333 416.719538,106.737778 C417.235093,106.222222 417.492871,105.534815 417.492871,104.675556 L417.492871,104.675556 L417.492871,68.0711111 C417.492871,59.5644444 415.215834,52.6259259 410.66176,47.2555556 C406.107686,41.8851852 399.620278,39.2 391.199538,39.2 C385.958056,39.2 381.683241,40.0592593 378.375093,41.7777778 C375.066945,43.4962963 372.123982,46.0311111 369.546204,49.3822222 L369.546204,49.3822222 L369.546204,18.8355556 C369.546204,17.9762963 369.288427,17.2888889 368.772871,16.7733333 C368.257315,16.2577778 367.569908,16 366.710649,16 L366.710649,16 L364.519538,16 C363.660278,16 362.972871,16.2577778 362.457315,16.7733333 C361.94176,17.2888889 361.683982,17.9762963 361.683982,18.8355556 L361.683982,18.8355556 L361.683982,104.675556 C361.683982,105.534815 361.94176,106.222222 362.457315,106.737778 C362.972871,107.253333 363.660278,107.511111 364.519538,107.511111 L364.519538,107.511111 L366.710649,107.511111 Z M463.248427,108.8 C472.184723,108.8 479.123241,106.071852 484.063982,100.615556 C489.004723,95.1592593 491.603982,88.0918519 491.86176,79.4133333 C491.947686,78.5540741 491.990649,76.7496296 491.990649,74 C491.990649,71.2503704 491.947686,69.4459259 491.86176,68.5866667 C491.603982,59.9081481 489.004723,52.8407407 484.063982,47.3844444 C479.123241,41.9281481 472.184723,39.2 463.248427,39.2 C454.31213,39.2 447.373612,41.9281481 442.432871,47.3844444 C437.49213,52.8407407 434.892871,59.9081481 434.635093,68.5866667 L434.635093,68.5866667 L434.506204,74 L434.635093,79.4133333 C434.892871,88.0918519 437.49213,95.1592593 442.432871,100.615556 C447.373612,106.071852 454.31213,108.8 463.248427,108.8 Z M463.248427,101.324444 C457.147686,101.324444 452.228427,99.3696296 448.490649,95.46 C444.752871,91.5503704 442.755093,85.9866667 442.497315,78.7688889 L442.497315,78.7688889 L442.368427,74 L442.497315,69.2311111 C442.755093,62.0133333 444.752871,56.4496296 448.490649,52.54 C452.228427,48.6303704 457.147686,46.6755556 463.248427,46.6755556 C469.349167,46.6755556 474.268427,48.6303704 478.006204,52.54 C481.743982,56.4496296 483.74176,62.0133333 483.999538,69.2311111 C484.085464,70.0903704 484.128427,71.68 484.128427,74 C484.128427,76.32 484.085464,77.9096296 483.999538,78.7688889 C483.74176,85.9866667 481.743982,91.5503704 478.006204,95.46 C474.268427,99.3696296 469.349167,101.324444 463.248427,101.324444 Z M514.675093,107.511111 C515.534352,107.511111 516.22176,107.253333 516.737315,106.737778 C517.252871,106.222222 517.510649,105.534815 517.510649,104.675556 L517.510649,104.675556 L517.510649,68.7155556 C517.510649,61.8414815 519.358056,56.4496296 523.052871,52.54 C526.747686,48.6303704 531.688427,46.6755556 537.875093,46.6755556 C544.233612,46.6755556 549.109908,48.6088889 552.503982,52.4755556 C555.898056,56.3422222 557.595093,61.7555556 557.595093,68.7155556 L557.595093,68.7155556 L557.595093,104.675556 C557.595093,105.534815 557.852871,106.222222 558.368427,106.737778 C558.883982,107.253333 559.57139,107.511111 560.430649,107.511111 L560.430649,107.511111 L562.62176,107.511111 C563.481019,107.511111 564.168427,107.253333 564.683982,106.737778 C565.199538,106.222222 565.457315,105.534815 565.457315,104.675556 L565.457315,104.675556 L565.457315,68.0711111 C565.457315,59.5644444 563.180278,52.6259259 558.626204,47.2555556 C554.07213,41.8851852 547.584723,39.2 539.163982,39.2 C533.922501,39.2 529.647686,40.0592593 526.339538,41.7777778 C523.03139,43.4962963 520.088427,46.0311111 517.510649,49.3822222 L517.510649,49.3822222 L517.510649,43.3244444 C517.510649,42.4651852 517.252871,41.7777778 516.737315,41.2622222 C516.22176,40.7466667 515.534352,40.4888889 514.675093,40.4888889 L514.675093,40.4888889 L512.483982,40.4888889 C511.624723,40.4888889 510.937315,40.7466667 510.42176,41.2622222 C509.906204,41.7777778 509.648427,42.4651852 509.648427,43.3244444 L509.648427,43.3244444 L509.648427,104.675556 C509.648427,105.534815 509.906204,106.222222 510.42176,106.737778 C510.937315,107.253333 511.624723,107.511111 512.483982,107.511111 L512.483982,107.511111 L514.675093,107.511111 Z" id="syphon"></path>
                    <path d="M23.4555558,39.9701193 L56.2759616,0 L87.4461794,39.9701193 L23.4555558,39.9701193 Z M52.6816697,101.46261 L2.01214711,93.2270089 L19.9385486,45.826547 L52.6816697,101.46261 Z M52.6816697,101.46261 L2.01214711,93.2270089 L19.9385486,45.826547 L52.6816697,101.46261 Z M90.7295422,46.0095604 L110.302246,93.4100223 L59.6327233,101.645624 L90.7295422,46.0095604 Z M91.2783096,39.4210792 L60.9131806,0.805258813 L110.302246,29.355344 L91.2783096,39.4210792 Z M19.2068587,39.4210792 L2.01214711,29.355344 L51.0353675,0.98827218 L19.2068587,39.4210792 Z M17.3776341,42.5323064 L-6.39488462e-14,88.285648 L-6.39488462e-14,32.4665712 L17.3776341,42.5323064 Z M54.3279718,105.488904 L54.3279718,126.901468 L2.92675943,97.253303 L54.3279718,105.488904 Z M57.9864211,105.488904 L109.387634,97.253303 L57.9864211,126.901468 L57.9864211,105.488904 Z M1.74625617,100.969174 L50.7187591,128.9519 L1.74625617,132 L1.74625617,100.969174 Z M112.497315,32.2835579 L112.497315,88.8346881 L93.2904567,42.5323064 L112.497315,32.2835579 Z" id="tether_icon_white_beta"></path>
                </g>
            </g>
        </g>
    </g>
</svg>