<?xml version="1.0" encoding="UTF-8"?>
<svg width="522px" height="633px" viewBox="0 0 522 633" version="1.1" xmlns="http://www.w3.org/2000/svg" xmlns:xlink="http://www.w3.org/1999/xlink">
    <!-- Generator: Sketch 62 (91390) - https://sketch.com -->
    <title>undraw_sync_files</title>
    <desc>Created with Sketch.</desc>
    <g id="Page-1" stroke="none" stroke-width="1" fill="none" fill-rule="evenodd">
        <g id="undraw_sync_files" fill-rule="nonzero">
            <path d="M383,0 L13,0 C5.82359262,0.00794707649 0.00794707649,5.82359262 0,13 L0,513 C0.00812305151,520.176334 5.82366562,525.991877 13,526 L383,526 C390.176264,525.991706 395.991706,520.176264 396,513 L396,13 C395.991877,5.82366562 390.176334,0.00812305151 383,0 Z" id="Path" fill="#F2F2F2"></path>
            <path d="M24.42966,16 C19.4229312,16.0848942 15.4289855,20.2051751 15.4990675,25.21212 L15.4990675,500.78788 C15.4289855,505.794825 19.4229312,509.915106 24.42966,510 L371.57034,510 C376.577069,509.915106 380.571015,505.794825 380.500933,500.78788 L380.500933,25.21212 C380.571015,20.2051751 376.577069,16.0848942 371.57034,16 L24.42966,16 Z" id="Path" fill="#FFFFFF"></path>
            <path d="M42.5,38 C39.19141,38 36.5,41.03744 36.5,44.77143 L36.5,110.22857 C36.5,113.96257 39.19141,117 42.5,117 L353.5,117 C356.80859,117 359.5,113.96256 359.5,110.22857 L359.5,44.77143 C359.5,41.03743 356.80859,38 353.5,38 L42.5,38 Z" id="Path" fill="#E6E6E6"></path>
            <path d="M42.5,148.75 C39.1405734,148.801895 36.4567871,151.56275 36.4994854,154.9223 L36.4994854,294.8277 C36.4567871,298.18725 39.1405734,300.948105 42.5,301 L353.5,301 C356.859427,300.948105 359.543213,298.18725 359.500515,294.8277 L359.500515,154.9223 C359.543213,151.56275 356.859427,148.801895 353.5,148.75 L42.5,148.75 Z" id="Path" fill="#E6E6E6"></path>
            <rect id="Rectangle" fill="#FFFFFF" x="75" y="47.25" width="246" height="14"></rect>
            <rect id="Rectangle" fill="#FFFFFF" x="75.5" y="76.75" width="246" height="6.5"></rect>
            <rect id="Rectangle" fill="#FFFFFF" x="75.5" y="88.25" width="246" height="6.5"></rect>
            <rect id="Rectangle" fill="#FFFFFF" x="75.5" y="99.75" width="246" height="6.5"></rect>
            <path d="M221.1626,301.25 L334.37354,301.25 C335.84746,301.25 337.176212,300.362007 337.740302,299.0003 C338.304392,297.638594 337.992753,296.071175 336.95068,295.02881 L264.49414,222.57227 C263.070009,221.15137 260.764461,221.15137 259.34033,222.57227 L241.32227,240.59033 C239.888899,242.024082 237.944602,242.829588 235.91724,242.829588 C233.889878,242.829588 231.945581,242.024082 230.51221,240.59033 L174.07715,184.15527 C172.652824,182.73438 170.347176,182.73438 168.92285,184.15527 L58.54932,294.52881 C57.5072467,295.571175 57.1956085,297.138594 57.759698,298.5003 C58.3237875,299.862007 59.6525395,300.74989 61.12646,300.75 L221.30762,300.75 L221.1626,301.25 Z" id="Path" fill="#FFFFFF"></path>
            <circle id="Oval" fill="#FFFFFF" cx="86.5" cy="181.75" r="14"></circle>
            <path d="M42.5,333.75 C39.1405734,333.801895 36.4567871,336.56275 36.4994854,339.9223 L36.4994854,479.8277 C36.4567871,483.18725 39.1405734,485.948105 42.5,486 L353.5,486 C356.859427,485.948105 359.543213,483.18725 359.500515,479.8277 L359.500515,339.9223 C359.543213,336.56275 356.859427,333.801895 353.5,333.75 L42.5,333.75 Z" id="Path" fill="#E6E6E6"></path>
            <path d="M221.1626,486.25 L334.37354,486.25 C335.847491,486.25 337.176186,485.361716 337.74025,483.999966 C338.304313,482.638215 337.992704,481.070777 336.95068,480.02832 L264.49414,407.57232 C263.069609,406.152387 260.764861,406.152387 259.34033,407.57232 L241.32227,425.58989 C239.889111,427.024229 237.944622,427.830131 235.916995,427.830131 C233.889368,427.830131 231.944879,427.024229 230.51172,425.58989 L174.07715,369.15532 C172.652421,367.735402 170.347579,367.735402 168.92285,369.15532 L58.54932,479.52832 C57.5072963,480.570777 57.195687,482.138215 57.7597503,483.499966 C58.3238135,484.861716 59.6525092,485.749708 61.12646,485.75 L221.30762,485.75 L221.1626,486.25 Z" id="Path" fill="#FFFFFF"></path>
            <circle id="Oval" fill="#FFFFFF" cx="86.5" cy="366.75" r="14"></circle>
            <path d="M143,115 C138.031829,115.00577 134.00577,119.031829 134,124 L134,624 C134.005599,628.968242 138.031758,632.994401 143,633 L513,633 C517.968315,632.994577 521.994577,628.968315 522,624 L522,124 C521.994401,119.031758 517.968242,115.005599 513,115 L143,115 Z" id="Path" fill="#E6E6E6"></path>
            <path d="M153.92966,129 C148.922931,129.084894 144.928985,133.205175 144.999067,138.21212 L144.999067,613.78788 C144.928985,618.794825 148.922931,622.915106 153.92966,623 L501.07034,623 C506.077069,622.915106 510.071015,618.794825 510.000933,613.78788 L510.000933,138.21212 C510.071015,133.205175 506.077069,129.084894 501.07034,129 L153.92966,129 Z" id="Path" fill="#FFFFFF"></path>
            <path d="M208.25,198.18262 C206.041907,198.185144 204.252524,199.974527 204.25,202.18262 L204.25,220.5415 C204.252524,222.749593 206.041907,224.538976 208.25,224.5415 L444.25,224.5415 C446.458163,224.539147 448.25,222.749663 448.25,220.5415 L448.25,202.18262 C448.25,199.974457 446.458163,198.184973 444.25,198.18262 L208.25,198.18262 Z" id="Path" fill="#34C7B5"></path>
            <path d="M206.75,258.939 C206.198014,258.939722 205.75,259.387014 205.75,259.939 L205.75,267.106 C205.75,267.657988 206.198012,268.105284 206.75,268.106 L446.75,268.106 C447.302056,268.105449 447.75,267.658056 447.75,267.106 L447.75,259.939 C447.75,259.386944 447.302056,258.939551 446.75,258.939 L206.75,258.939 Z" id="Path" fill="#CCCCCC"></path>
            <path d="M206.75,282.23389 C206.198012,282.234606 205.75,282.681902 205.75,283.23389 L205.75,290.40089 C205.75,290.952878 206.198012,291.400174 206.75,291.40089 L446.75,291.40089 C447.302056,291.400339 447.75,290.952946 447.75,290.40089 L447.75,283.23389 C447.75,282.681834 447.302056,282.234441 446.75,282.23389 L206.75,282.23389 Z" id="Path" fill="#CCCCCC"></path>
            <path d="M206.75,305.52881 C206.198012,305.529526 205.75,305.976822 205.75,306.52881 L205.75,313.69531 C205.75,314.247298 206.198012,314.694594 206.75,314.69531 L446.75,314.69531 C447.302056,314.694759 447.75,314.247366 447.75,313.69531 L447.75,306.52881 C447.75,305.976754 447.302056,305.529361 446.75,305.52881 L206.75,305.52881 Z" id="Path" fill="#CCCCCC"></path>
            <path d="M206.25,352.061 C205.698012,352.061716 205.25,352.509012 205.25,353.061 L205.25,360.2275 C205.25,360.779488 205.698012,361.226784 206.25,361.2275 L446.25,361.2275 C446.802056,361.226949 447.25,360.779556 447.25,360.2275 L447.25,353.061 C447.25,352.508944 446.802056,352.061551 446.25,352.061 L206.25,352.061 Z" id="Path" fill="#CCCCCC"></path>
            <path d="M206.25,375.356 C205.698012,375.356716 205.25,375.804012 205.25,376.356 L205.25,383.5225 C205.25,384.074488 205.698012,384.521784 206.25,384.5225 L446.25,384.5225 C446.802056,384.521949 447.25,384.074556 447.25,383.5225 L447.25,376.356 C447.25,375.803944 446.802056,375.356551 446.25,375.356 L206.25,375.356 Z" id="Path" fill="#CCCCCC"></path>
            <path d="M206.25,398.65039 C205.697944,398.650941 205.25,399.098334 205.25,399.65039 L205.25,406.81739 C205.25,407.369446 205.697944,407.816839 206.25,407.81739 L446.25,407.81739 C446.802132,407.81702 447.25,407.369522 447.25,406.81739 L447.25,399.65039 C447.25,399.098258 446.802132,398.65076 446.25,398.65039 L206.25,398.65039 Z" id="Path" fill="#CCCCCC"></path>
            <path d="M206.25,422.06055 C205.697944,422.061101 205.25,422.508494 205.25,423.06055 L205.25,430.22755 C205.25,430.779606 205.697944,431.226999 206.25,431.22755 L446.25,431.22755 C446.802132,431.22718 447.25,430.779682 447.25,430.22755 L447.25,423.06055 C447.25,422.508418 446.802132,422.06092 446.25,422.06055 L206.25,422.06055 Z" id="Path" fill="#CCCCCC"></path>
            <path d="M206.25,445.35547 C205.697944,445.356021 205.25,445.803414 205.25,446.35547 L205.25,453.52247 C205.25,454.074526 205.697944,454.521919 206.25,454.52247 L446.25,454.52247 C446.802132,454.5221 447.25,454.074602 447.25,453.52247 L447.25,446.35547 C447.25,445.803338 446.802132,445.35584 446.25,445.35547 L206.25,445.35547 Z" id="Path" fill="#CCCCCC"></path>
            <path d="M206.25,468.65039 C205.697944,468.650941 205.25,469.098334 205.25,469.65039 L205.25,476.81739 C205.25,477.369446 205.697944,477.816839 206.25,477.81739 L446.25,477.81739 C446.802132,477.81702 447.25,477.369522 447.25,476.81739 L447.25,469.65039 C447.25,469.098258 446.802132,468.65076 446.25,468.65039 L206.25,468.65039 Z" id="Path" fill="#CCCCCC"></path>
            <path d="M206.25,492.06055 C205.697944,492.061101 205.25,492.508494 205.25,493.06055 L205.25,500.22755 C205.25,500.779606 205.697944,501.226999 206.25,501.22755 L446.25,501.22755 C446.802132,501.22718 447.25,500.779682 447.25,500.22755 L447.25,493.06055 C447.25,492.508418 446.802132,492.06092 446.25,492.06055 L206.25,492.06055 Z" id="Path" fill="#CCCCCC"></path>
            <path d="M206.25,515.35547 C205.697944,515.356021 205.25,515.803414 205.25,516.35547 L205.25,523.52247 C205.25,524.074526 205.697944,524.521919 206.25,524.52247 L446.25,524.52247 C446.802132,524.5221 447.25,524.074602 447.25,523.52247 L447.25,516.35547 C447.25,515.803338 446.802132,515.35584 446.25,515.35547 L206.25,515.35547 Z" id="Path" fill="#CCCCCC"></path>
            <path d="M206.25,538.65039 C205.697944,538.650941 205.25,539.098334 205.25,539.65039 L205.25,546.81739 C205.25,547.369446 205.697944,547.816839 206.25,547.81739 L446.25,547.81739 C446.802132,547.81702 447.25,547.369522 447.25,546.81739 L447.25,539.65039 C447.25,539.098258 446.802132,538.65076 446.25,538.65039 L206.25,538.65039 Z" id="Path" fill="#CCCCCC"></path>
        </g>
    </g>
</svg>