<?xml version="1.0" encoding="UTF-8"?>
<svg width="598px" height="172px" viewBox="0 0 598 172" version="1.1" xmlns="http://www.w3.org/2000/svg" xmlns:xlink="http://www.w3.org/1999/xlink">
    <title>app_logo_filled</title>
    <g id="Page-1" stroke="none" stroke-width="1" fill="none" fill-rule="evenodd">
        <g id="banners" transform="translate(-216.000000, -4563.000000)" fill="#34C7B5">
            <g id="app_outline_reversed_final" transform="translate(3.000000, 4399.000000)">
                <g id="app_logo_filled" transform="translate(213.000000, 164.000000)">
                    <text id="syphon" font-family="Rubik-Light, Rubik" font-size="120" font-weight="300">
                        <tspan x="182.355841" y="127">syphon</tspan>
                    </text>
                    <path d="M30.5150178,52 L73.2134419,-2.55795385e-13 L113.765018,52 L30.5150178,52 Z M68.5373693,132 L2.61774674,121.285714 L25.9394904,59.6190476 L68.5373693,132 Z M68.5373693,132 L2.61774674,121.285714 L25.9394904,59.6190476 L68.5373693,132 Z M118.03658,59.8571429 L143.500117,121.52381 L77.5804944,132.238095 L118.03658,59.8571429 Z M118.750511,51.2857143 L79.2463332,1.04761905 L143.500117,38.1904762 L118.750511,51.2857143 Z M24.9875825,51.2857143 L2.61774674,38.1904762 L66.3955765,1.28571429 L24.9875825,51.2857143 Z M22.6078128,55.3333333 L-1.42108547e-13,114.857143 L-1.42108547e-13,42.2380952 L22.6078128,55.3333333 Z M70.679162,137.238095 L70.679162,165.095238 L3.80763163,126.52381 L70.679162,137.238095 Z M75.4387016,137.238095 L142.310232,126.52381 L75.4387016,165.095238 L75.4387016,137.238095 Z M2.27183013,131.358053 L65.9836779,167.762792 L2.27183013,171.728284 L2.27183013,131.358053 Z M146.355841,42 L146.355841,115.571429 L121.368258,55.3333333 L146.355841,42 Z" id="tether_icon_white_beta" fill-rule="nonzero"></path>
                </g>
            </g>
        </g>
    </g>
</svg>